<svg xmlns="http://www.w3.org/2000/svg" width="17.304" height="24" viewBox="0 0 17.304 24"><defs><style>.a{fill:#f58220;}.b{fill:#fe5000;}</style></defs><g transform="translate(-65.8)"><g transform="translate(65.8)"><path class="a" d="M80.81,10.206v-3.8a6.373,6.373,0,0,0-1.9-4.579A6.17,6.17,0,0,0,74.526,0h-.081A6.391,6.391,0,0,0,68.09,6.406v3.8a2.6,2.6,0,0,0-2.29,2.61v8.538A2.63,2.63,0,0,0,68.41,24H80.494a2.63,2.63,0,0,0,2.61-2.646V12.817A2.607,2.607,0,0,0,80.81,10.206ZM69.1,6.406h.005A5.384,5.384,0,0,1,74.45,1h.005a5.27,5.27,0,0,1,3.735,1.537,5.388,5.388,0,0,1,1.6,3.867v3.806H78.668V6.406A4.287,4.287,0,0,0,77.4,3.328a4.125,4.125,0,0,0-2.915-1.211h-.031A4.261,4.261,0,0,0,70.221,6.4v3.811H69.1Zm8.553,0v3.806H71.244V6.406A3.24,3.24,0,0,1,74.46,3.139h.031a3.12,3.12,0,0,1,2.2.916A3.28,3.28,0,0,1,77.655,6.406ZM82.132,21.37h0a1.613,1.613,0,0,1-1.613,1.613H68.43a1.613,1.613,0,0,1-1.613-1.613V12.842a1.613,1.613,0,0,1,1.613-1.613H80.52a1.613,1.613,0,0,1,1.613,1.613Z" transform="translate(-65.8)"/></g><g transform="translate(72.613 15.462)"><g transform="translate(0)"><path class="b" d="M203.3,305.228a1.834,1.834,0,1,0-2.269,2.269v1.425a.509.509,0,1,0,1.018,0V307.5A1.829,1.829,0,0,0,203.3,305.228Zm-1.76,1.323a.819.819,0,1,1,.819-.819A.819.819,0,0,1,201.537,306.551Z" transform="translate(-199.7 -303.9)"/></g></g></g></svg>