<?xml version="1.0" standalone="no"?>
<!DOCTYPE svg PUBLIC "-//W3C//DTD SVG 20010904//EN"
 "http://www.w3.org/TR/2001/REC-SVG-20010904/DTD/svg10.dtd">
<svg version="1.0" xmlns="http://www.w3.org/2000/svg"
 width="45.000000pt" height="39.000000pt" viewBox="0 0 45.000000 39.000000"
 preserveAspectRatio="xMidYMid meet">

<g transform="translate(0.000000,39.000000) scale(0.100000,-0.100000)"
fill="#000000" stroke="none">
<path d="M275 368 c-14 -21 -14 -24 2 -35 24 -18 32 -16 26 6 -3 13 1 20 14
23 16 4 16 5 -4 16 -19 10 -24 9 -38 -10z"/>
<path d="M407 40 c-14 -17 -21 -19 -38 -9 -28 15 -33 6 -9 -16 18 -17 21 -17
45 -1 14 9 25 23 25 31 0 19 -2 19 -23 -5z"/>
<path d="M90 31 c0 -5 7 -14 15 -21 12 -10 20 -9 41 5 14 9 23 19 20 22 -3 3
-13 0 -21 -7 -12 -10 -19 -10 -27 -2 -14 14 -28 16 -28 3z"/>
</g>
</svg>
