<?xml version="1.0" standalone="no"?>
<!DOCTYPE svg PUBLIC "-//W3C//DTD SVG 20010904//EN"
 "http://www.w3.org/TR/2001/REC-SVG-20010904/DTD/svg10.dtd">
<svg version="1.0" xmlns="http://www.w3.org/2000/svg"
 width="980.000000pt" height="922.000000pt" viewBox="0 0 980.000000 922.000000"
 preserveAspectRatio="xMidYMid meet">

<g transform="translate(0.000000,922.000000) scale(0.100000,-0.100000)"
fill="#000000" stroke="none">
<path d="M0 8837 l0 -384 213 -6 c116 -4 395 -10 618 -13 l406 -7 6 78 c4 43
9 80 12 83 2 2 152 0 332 -4 l328 -9 671 -2610 c370 -1435 702 -2728 740
-2872 37 -145 72 -263 78 -263 27 -1 546 184 546 194 0 6 -343 1364 -762 3018
l-763 3008 -607 0 -608 0 0 85 0 85 -605 0 -605 0 0 -383z"/>
<path d="M5202 7526 c-909 -255 -1655 -466 -1659 -469 -5 -6 552 -2077 566
-2103 4 -8 174 33 551 135 2384 643 2800 757 2800 766 1 19 -594 2135 -599
2134 -3 0 -750 -209 -1659 -463z"/>
<path d="M8715 5845 c-236 -67 -1060 -302 -1830 -520 -770 -218 -1701 -483
-2070 -587 -368 -105 -672 -192 -674 -194 -3 -2 141 -459 319 -1015 l324
-1010 26 6 c35 8 4984 1367 4987 1369 1 1 -138 469 -309 1039 -247 823 -314
1037 -327 1036 -9 0 -209 -56 -446 -124z"/>
<path d="M9165 3030 c-236 -65 -1112 -303 -1945 -530 -1869 -508 -1715 -465
-1714 -481 1 -8 34 -134 74 -282 60 -220 76 -267 89 -263 9 3 340 93 736 200
2131 576 3390 918 3392 920 1 1 -37 125 -85 276 -60 189 -92 275 -102 277 -8
1 -208 -52 -445 -117z"/>
<path d="M4075 2613 c-292 -38 -569 -155 -766 -325 -185 -159 -310 -385 -366
-664 -26 -132 -26 -582 1 -704 103 -474 362 -754 800 -865 196 -50 401 -61
546 -31 556 117 922 498 1021 1062 26 153 29 364 5 486 -89 464 -404 805 -896
972 -102 34 -277 77 -302 75 -7 -1 -26 -4 -43 -6z m168 -763 c122 -46 241
-165 287 -288 91 -243 52 -589 -84 -748 -84 -98 -199 -140 -356 -131 -283 16
-489 175 -539 415 -16 78 -14 277 4 347 50 197 193 343 390 401 132 38 205 39
298 4z"/>
</g>
</svg>
