<?xml version="1.0" standalone="no"?>
<svg xmlns="http://www.w3.org/2000/svg" viewBox="0 0 242.424 36" width="242.424" height="36"><g fill="#ead017" color="#ead017" transform="translate(0 4) scale(0.5833334)"><svg width="48.0" height="48.0" x="0.0" y="0.0" viewBox="0 0 48 48"><path fill="currentColor" fill-rule="nonzero" d="M24 .21L.21 24 24 47.79 47.79 24 24 .21zM5.82 24L24 5.82l7.69 7.69-2.8 2.8L24 11.43 11.43 24l4.88 4.89-2.8 2.8L5.82 24zm25.15 0L24 30.97 17.03 24 24 17.03 30.97 24zM16.31 34.49l2.8-2.8L24 36.57 36.57 24l-4.89-4.89 2.8-2.8 7.7 7.69L24 42.18l-7.69-7.69z"></path></svg></g><path fill="#000000" fill-rule="nonzero" d="M7.85 16.97L0.10 16.97Q0 16.97 0 16.85L0 16.85L0.02 0.36Q0.02 0.26 0.12 0.26L0.12 0.26L7.82 0.26Q7.92 0.26 7.92 0.38L7.92 0.38L7.92 3.07Q7.92 3.17 7.82 3.17L7.82 3.17L2.90 3.17L2.90 6.91L7.82 6.91Q7.92 6.91 7.92 7.01L7.92 7.01L7.94 9.72Q7.94 9.82 7.85 9.82L7.85 9.82L2.90 9.82L2.90 14.02L7.85 14.02Q7.94 14.02 7.94 14.14L7.94 14.14L7.94 16.87Q7.94 16.97 7.85 16.97L7.85 16.97ZM17.93 16.97L10.18 16.97Q10.08 16.97 10.08 16.85L10.08 16.85L10.10 0.38Q10.10 0.26 10.22 0.26L10.22 0.26L12.89 0.26Q13.01 0.26 13.01 0.38L13.01 0.38L12.98 14.02L17.93 14.02Q18.05 14.02 18.05 14.14L18.05 14.14L18.05 16.85Q18.05 16.97 17.93 16.97L17.93 16.97ZM25.01 16.97L22.30 16.97Q22.20 16.97 22.20 16.85L22.20 16.85L22.25 0.36Q22.25 0.26 22.34 0.26L22.34 0.26L27.19 0.26Q28.49 0.26 29.58 0.90Q30.67 1.54 31.32 2.60Q31.97 3.67 31.97 5.02L31.97 5.02Q31.97 5.90 31.70 6.61Q31.44 7.32 31.08 7.81Q30.72 8.30 30.43 8.54L30.43 8.54Q31.73 9.98 31.73 11.93L31.73 11.93L31.75 16.85Q31.75 16.97 31.63 16.97L31.63 16.97L28.92 16.97Q28.82 16.97 28.82 16.90L28.82 16.90L28.82 11.93Q28.82 11.06 28.21 10.43Q27.60 9.79 26.71 9.79L26.71 9.79L25.13 9.79L25.10 16.85Q25.10 16.97 25.01 16.97L25.01 16.97ZM25.13 3.14L25.13 6.91L27.19 6.91Q27.94 6.91 28.51 6.36Q29.09 5.81 29.09 5.02L29.09 5.02Q29.09 4.25 28.52 3.70Q27.96 3.14 27.19 3.14L27.19 3.14L25.13 3.14ZM36.60 16.97L33.89 16.97Q33.77 16.97 33.77 16.85L33.77 16.85L33.79 0.36Q33.79 0.26 33.89 0.26L33.89 0.26L36.58 0.26Q36.67 0.26 36.67 0.36L36.67 0.36L36.70 16.85Q36.70 16.97 36.60 16.97L36.60 16.97ZM41.42 16.97L39.02 16.97Q38.83 16.97 38.83 16.80L38.83 16.80L38.81 0.46Q38.81 0.26 39 0.26L39 0.26L41.16 0.26L45.22 9.72L45.10 0.46Q45.10 0.26 45.31 0.26L45.31 0.26L47.69 0.26Q47.83 0.26 47.83 0.46L47.83 0.46L47.86 16.82Q47.86 16.97 47.74 16.97L47.74 16.97L45.62 16.97L41.47 8.14L41.64 16.78Q41.64 16.97 41.42 16.97L41.42 16.97ZM54.36 17.21L54.36 17.21Q53.04 17.21 51.97 16.55Q50.90 15.89 50.28 14.78Q49.66 13.68 49.66 12.31L49.66 12.31L49.68 4.82Q49.68 3.50 50.29 2.41Q50.90 1.32 51.97 0.66Q53.04 0 54.36 0L54.36 0Q55.68 0 56.74 0.65Q57.79 1.30 58.42 2.39Q59.04 3.48 59.04 4.82L59.04 4.82L59.04 5.93Q59.04 6.02 58.94 6.02L58.94 6.02L56.26 6.02Q56.16 6.02 56.16 5.93L56.16 5.93L56.16 4.82Q56.16 4.03 55.64 3.46Q55.13 2.88 54.36 2.88L54.36 2.88Q53.50 2.88 53.04 3.47Q52.58 4.06 52.58 4.82L52.58 4.82L52.58 12.31Q52.58 13.20 53.10 13.75Q53.62 14.30 54.36 14.30L54.36 14.30Q55.13 14.30 55.64 13.69Q56.16 13.08 56.16 12.31L56.16 12.31L56.16 11.21Q56.16 11.11 56.26 11.11L56.26 11.11L58.97 11.11Q59.06 11.11 59.06 11.21L59.06 11.21L59.06 12.31Q59.06 13.68 58.43 14.78Q57.79 15.89 56.74 16.55Q55.68 17.21 54.36 17.21ZM65.26 17.21L65.26 17.21Q63.96 17.21 62.89 16.55Q61.82 15.89 61.18 14.80Q60.53 13.70 60.53 12.38L60.53 12.38L60.55 4.78Q60.55 3.46 61.19 2.38Q61.82 1.30 62.90 0.65Q63.98 0 65.26 0L65.26 0Q66.55 0 67.61 0.65Q68.66 1.30 69.30 2.38Q69.94 3.46 69.94 4.78L69.94 4.78L69.96 12.38Q69.96 13.70 69.32 14.80Q68.69 15.89 67.62 16.55Q66.55 17.21 65.26 17.21ZM65.26 14.30L65.26 14.30Q65.98 14.30 66.52 13.72Q67.06 13.13 67.06 12.38L67.06 12.38L67.03 4.78Q67.03 3.98 66.53 3.43Q66.02 2.88 65.26 2.88L65.26 2.88Q64.51 2.88 63.98 3.42Q63.46 3.96 63.46 4.78L63.46 4.78L63.46 12.38Q63.46 13.18 63.98 13.74Q64.51 14.30 65.26 14.30ZM74.40 16.97L72 16.97Q71.81 16.97 71.81 16.80L71.81 16.80L71.78 0.46Q71.78 0.26 71.98 0.26L71.98 0.26L74.14 0.26L78.19 9.72L78.07 0.46Q78.07 0.26 78.29 0.26L78.29 0.26L80.66 0.26Q80.81 0.26 80.81 0.46L80.81 0.46L80.83 16.82Q80.83 16.97 80.71 16.97L80.71 16.97L78.60 16.97L74.45 8.14L74.62 16.78Q74.62 16.97 74.40 16.97L74.40 16.97ZM90.86 17.21L90.86 17.21Q89.57 17.21 88.51 16.56Q87.46 15.91 86.82 14.82Q86.18 13.73 86.18 12.38L86.18 12.38L86.18 4.78Q86.18 3.48 86.82 2.39Q87.46 1.30 88.52 0.65Q89.59 0 90.86 0L90.86 0Q92.18 0 93.25 0.64Q94.32 1.27 94.94 2.35Q95.57 3.43 95.57 4.78L95.57 4.78L95.57 5.88Q95.57 5.98 95.45 5.98L95.45 5.98L92.76 5.98Q92.66 5.98 92.66 5.88L92.66 5.88L92.66 4.97Q92.66 4.06 92.15 3.46Q91.63 2.86 90.86 2.86L90.86 2.86Q90.17 2.86 89.63 3.43Q89.09 4.01 89.09 4.78L89.09 4.78L89.09 12.38Q89.09 13.18 89.62 13.74Q90.14 14.30 90.86 14.30L90.86 14.30Q91.63 14.30 92.15 13.75Q92.66 13.20 92.66 12.38L92.66 12.38L92.66 11.21L90.98 11.21Q90.86 11.21 90.86 11.09L90.86 11.09L90.86 8.40Q90.86 8.28 90.98 8.28L90.98 8.28L95.47 8.28Q95.57 8.28 95.57 8.40L95.57 8.40L95.57 12.38Q95.57 13.73 94.93 14.82Q94.30 15.91 93.24 16.56Q92.18 17.21 90.86 17.21ZM101.83 17.21L101.83 17.21Q100.56 17.21 99.48 16.55Q98.40 15.89 97.76 14.78Q97.13 13.68 97.13 12.36L97.13 12.36L97.18 0.36Q97.18 0.26 97.27 0.26L97.27 0.26L99.96 0.26Q100.06 0.26 100.06 0.36L100.06 0.36L100.06 12.36Q100.06 13.18 100.57 13.74Q101.09 14.30 101.83 14.30L101.83 14.30Q102.60 14.30 103.12 13.74Q103.63 13.18 103.63 12.36L103.63 12.36L103.63 0.36Q103.63 0.26 103.73 0.26L103.73 0.26L106.42 0.26Q106.51 0.26 106.51 0.36L106.51 0.36L106.56 12.36Q106.56 13.70 105.92 14.81Q105.29 15.91 104.22 16.56Q103.15 17.21 101.83 17.21ZM107.26 16.85L107.26 16.85L110.23 0.36Q110.26 0.26 110.35 0.26L110.35 0.26L113.83 0.26Q113.93 0.26 113.95 0.36L113.95 0.36L116.81 16.85Q116.83 16.97 116.71 16.97L116.71 16.97L114.05 16.97Q113.95 16.97 113.93 16.85L113.93 16.85L113.66 15.10L110.40 15.10L110.14 16.85Q110.11 16.97 110.02 16.97L110.02 16.97L107.35 16.97Q107.26 16.97 107.26 16.85ZM111.96 5.78L110.88 12.53L113.18 12.53L112.20 5.78L112.06 4.90L111.96 5.78ZM122.28 16.97L119.57 16.97Q119.47 16.97 119.47 16.85L119.47 16.85L119.47 3.17L116.35 3.17Q116.23 3.17 116.23 3.05L116.23 3.05L116.26 0.36Q116.26 0.26 116.35 0.26L116.35 0.26L125.47 0.26Q125.59 0.26 125.59 0.36L125.59 0.36L125.59 3.05Q125.59 3.17 125.50 3.17L125.50 3.17L122.35 3.17L122.38 16.85Q122.38 16.97 122.28 16.97L122.28 16.97ZM134.62 16.97L126.86 16.97Q126.77 16.97 126.77 16.85L126.77 16.85L126.79 0.36Q126.79 0.26 126.89 0.26L126.89 0.26L134.59 0.26Q134.69 0.26 134.69 0.38L134.69 0.38L134.69 3.07Q134.69 3.17 134.59 3.17L134.59 3.17L129.67 3.17L129.67 6.91L134.59 6.91Q134.69 6.91 134.69 7.01L134.69 7.01L134.71 9.72Q134.71 9.82 134.62 9.82L134.62 9.82L129.67 9.82L129.67 14.02L134.62 14.02Q134.71 14.02 134.71 14.14L134.71 14.14L134.71 16.87Q134.71 16.97 134.62 16.97L134.62 16.97ZM139.66 16.97L136.94 16.97Q136.85 16.97 136.85 16.85L136.85 16.85L136.90 0.36Q136.90 0.26 136.99 0.26L136.99 0.26L139.92 0.26Q140.02 0.26 140.09 0.36L140.09 0.36L142.27 3.53L144.46 0.36Q144.53 0.26 144.62 0.26L144.62 0.26L147.58 0.26Q147.67 0.26 147.67 0.36L147.67 0.36L147.72 16.85Q147.72 16.97 147.62 16.97L147.62 16.97L144.91 16.97Q144.82 16.97 144.82 16.85L144.82 16.85L144.79 4.61L142.27 8.26L139.78 4.61L139.75 16.85Q139.75 16.97 139.66 16.97L139.66 16.97ZM148.92 16.85L148.92 16.85L151.90 0.36Q151.92 0.26 152.02 0.26L152.02 0.26L155.50 0.26Q155.59 0.26 155.62 0.36L155.62 0.36L158.47 16.85Q158.50 16.97 158.38 16.97L158.38 16.97L155.71 16.97Q155.62 16.97 155.59 16.85L155.59 16.85L155.33 15.10L152.06 15.10L151.80 16.85Q151.78 16.97 151.68 16.97L151.68 16.97L149.02 16.97Q148.92 16.97 148.92 16.85ZM153.62 5.78L152.54 12.53L154.85 12.53L153.86 5.78L153.72 4.90L153.62 5.78ZM167.83 16.97L160.08 16.97Q159.98 16.97 159.98 16.85L159.98 16.85L160.01 0.38Q160.01 0.26 160.13 0.26L160.13 0.26L162.79 0.26Q162.91 0.26 162.91 0.38L162.91 0.38L162.89 14.02L167.83 14.02Q167.95 14.02 167.95 14.14L167.95 14.14L167.95 16.85Q167.95 16.97 167.83 16.97L167.83 16.97ZM172.22 16.97L169.51 16.97Q169.42 16.97 169.42 16.85L169.42 16.85L169.42 3.17L166.30 3.17Q166.18 3.17 166.18 3.05L166.18 3.05L166.20 0.36Q166.20 0.26 166.30 0.26L166.30 0.26L175.42 0.26Q175.54 0.26 175.54 0.36L175.54 0.36L175.54 3.05Q175.54 3.17 175.44 3.17L175.44 3.17L172.30 3.17L172.32 16.85Q172.32 16.97 172.22 16.97L172.22 16.97ZM184.56 16.97L176.81 16.97Q176.71 16.97 176.71 16.85L176.71 16.85L176.74 0.36Q176.74 0.26 176.83 0.26L176.83 0.26L184.54 0.26Q184.63 0.26 184.63 0.38L184.63 0.38L184.63 3.07Q184.63 3.17 184.54 3.17L184.54 3.17L179.62 3.17L179.62 6.91L184.54 6.91Q184.63 6.91 184.63 7.01L184.63 7.01L184.66 9.72Q184.66 9.82 184.56 9.82L184.56 9.82L179.62 9.82L179.62 14.02L184.56 14.02Q184.66 14.02 184.66 14.14L184.66 14.14L184.66 16.87Q184.66 16.97 184.56 16.97L184.56 16.97ZM190.82 17.21L190.82 17.21Q189.50 17.21 188.44 16.55Q187.37 15.89 186.74 14.78Q186.12 13.68 186.12 12.31L186.12 12.31L186.14 4.82Q186.14 3.50 186.76 2.41Q187.37 1.32 188.44 0.66Q189.50 0 190.82 0L190.82 0Q192.14 0 193.20 0.65Q194.26 1.30 194.88 2.39Q195.50 3.48 195.50 4.82L195.50 4.82L195.50 5.93Q195.50 6.02 195.41 6.02L195.41 6.02L192.72 6.02Q192.62 6.02 192.62 5.93L192.62 5.93L192.62 4.82Q192.62 4.03 192.11 3.46Q191.59 2.88 190.82 2.88L190.82 2.88Q189.96 2.88 189.50 3.47Q189.05 4.06 189.05 4.82L189.05 4.82L189.05 12.31Q189.05 13.20 189.56 13.75Q190.08 14.30 190.82 14.30L190.82 14.30Q191.59 14.30 192.11 13.69Q192.62 13.08 192.62 12.31L192.62 12.31L192.62 11.21Q192.62 11.11 192.72 11.11L192.72 11.11L195.43 11.11Q195.53 11.11 195.53 11.21L195.53 11.21L195.53 12.31Q195.53 13.68 194.89 14.78Q194.26 15.89 193.20 16.55Q192.14 17.21 190.82 17.21ZM201.72 17.21L201.72 17.21Q200.42 17.21 199.36 16.55Q198.29 15.89 197.64 14.80Q196.99 13.70 196.99 12.38L196.99 12.38L197.02 4.78Q197.02 3.46 197.65 2.38Q198.29 1.30 199.37 0.65Q200.45 0 201.72 0L201.72 0Q203.02 0 204.07 0.65Q205.13 1.30 205.76 2.38Q206.40 3.46 206.40 4.78L206.40 4.78L206.42 12.38Q206.42 13.70 205.79 14.80Q205.15 15.89 204.08 16.55Q203.02 17.21 201.72 17.21ZM201.72 14.30L201.72 14.30Q202.44 14.30 202.98 13.72Q203.52 13.13 203.52 12.38L203.52 12.38L203.50 4.78Q203.50 3.98 202.99 3.43Q202.49 2.88 201.72 2.88L201.72 2.88Q200.98 2.88 200.45 3.42Q199.92 3.96 199.92 4.78L199.92 4.78L199.92 12.38Q199.92 13.18 200.45 13.74Q200.98 14.30 201.72 14.30Z" transform="translate(36, 9.516)"></path></svg>